<svg  xmlns="http://www.w3.org/2000/svg" xmlns:xlink="http://www.w3.org/1999/xlink" width="861" height="300" viewBox="0 0 885 324"><path transform="translate(0 100)" d="M46.7,-52.6L21,-50.3L22.2,-29.9Q33.3,-30.4 46.8,-31.4Q46.8,-39.9 46.8,-44.1Q46.8,-49 46.7,-52.6ZM77.7,-54.9L52.8,-53Q52.8,-45.5 52.8,-41.1Q52.8,-36.1 52.9,-31.9Q53.3,-31.9 54.2,-32Q60.4,-32.5 68.3,-33.2Q73.2,-33.5 76.5,-34.5L79.3,-53.2Q79.6,-54.9 77.7,-54.9ZM43.2,-82.9L55.4,-75.1Q56.4,-74.2 55.4,-73.2L53.6,-71Q53.2,-70.5 53,-69.3Q52.8,-65.4 52.8,-58Q61.7,-58.7 70.8,-59.8Q74.7,-60.2 77.5,-61.8L82,-65.4Q82.7,-65.8 83.4,-65.4L91.3,-57Q92,-55.9 91,-55.2L88.7,-54Q87.4,-53.2 86.6,-51L82.5,-34L87,-29.9Q87.8,-28.6 86.5,-28.3Q81.7,-28.5 72.6,-28Q71.9,-28 71.6,-28L52.9,-26.9L53.1,-16.7Q53.1,-10.6 53.4,-1.2Q53.4,5.4 52.5,10.1Q51.9,11.6 50.3,10.6Q46.1,6.7 43.2,2.1Q42.6,1 43.4,-0.2L45.5,-3.4Q46.2,-4.2 46.3,-6.6Q46.5,-12.7 46.7,-26.5L22.2,-24.6Q21.9,-21 21.3,-17.1Q20.7,-15.4 19.2,-16.9Q15.2,-21.8 13.7,-24.8Q13.4,-25.7 13.8,-26.6L15.5,-29.6Q16,-30.2 16,-33.1Q16,-33.3 16,-33.4L14.6,-51.8Q13.5,-59.2 10.1,-64.2L11.6,-65.4L20.6,-55.6Q33.5,-56.3 46.7,-57.5L46.4,-67.2Q46.3,-76.8 41.7,-81.1L43.2,-82.9Z"></path><path transform="translate(100 100)" d="M95.8,3.7L95.7,6.3L74.6,8.5Q72,8.9 70.8,7.3Q66.9,2.2 60.7,-4.5L51.4,-14.2Q37.4,1.4 8.2,11.2L6.9,8.5Q33.7,-2.8 47.2,-18.6Q43.8,-22.1 36.9,-28.9Q33.7,-32.1 32.1,-33.7Q28.4,-38.1 21.5,-35.9L20.5,-38.1L30.3,-43.4Q31.6,-43.8 31.7,-42.5Q31.4,-40.7 33.9,-38.3Q43.2,-29.2 50.4,-22.6Q57.1,-31.8 60.4,-42.9Q63,-51.2 61.9,-55.4Q42.6,-54.1 25.9,-52.4Q19.3,-51.8 14.8,-50.5Q13.9,-50.1 12.7,-50.8L6.7,-55.2Q5.9,-57 7.3,-57Q16.5,-57 24.7,-57.5Q29.9,-57.8 42.1,-58.7Q45.9,-59 47.8,-59.1L47.8,-68.5Q47.8,-77.5 43.4,-80.6L44.6,-82.2L56.7,-75Q57.5,-74.2 56.7,-73.1L55.2,-71.1Q54.6,-70.4 54.4,-68.6L54.1,-59.6Q64.1,-60.3 74.6,-61.4Q81.5,-61.7 86.4,-64.5Q87,-65 88,-64.7L94.3,-58.4Q95,-57 93.4,-56.8Q84.9,-56.8 75.1,-56.2L65.3,-55.6L71.5,-49Q72.2,-47.7 71.2,-47L68.9,-44.3Q63.5,-29 55.1,-18.4Q61,-13 65.9,-9Q77.4,1.4 95.8,3.7Z"></path><path transform="translate(200 100)" d="M66.1,-63.1L67.3,-64.3L75.4,-57.2Q76,-56.5 75.2,-55.5L73.6,-53.7Q70.6,-43.6 66.9,-35.7Q70.2,-31.4 76.5,-22.3Q77,-21.3 76.7,-20.4L74.3,-11.9Q73.2,-10.6 72.3,-12.3Q67,-24.4 64,-29.9Q57.7,-18.2 46.6,-6.6L44.5,-8.3Q55.8,-23 60.8,-35.7Q56.5,-43 49.6,-52.7L51.3,-54.1Q52.8,-52.4 55.5,-49.4Q60.7,-43.4 62.8,-40.9Q64.5,-45.8 66.1,-51.6Q68.3,-59.3 66.1,-63.1ZM38.8,-62.4L39.9,-63.6L47.8,-56.6Q48.4,-56.1 47.6,-55L46,-53.2Q43.6,-44.7 40.6,-37Q44.7,-31.9 48.7,-26.5Q49.2,-25.7 48.9,-24.9L46.7,-17.5Q45.8,-16.4 44.9,-17.9Q41.3,-25.5 38.1,-31.2Q32,-17.9 21.2,-5.8L19.7,-7.1Q19.7,-6.5 19.8,-5.4Q19.8,-4.4 19.8,-4Q20,5.3 19.1,9.9Q18.8,11 18.3,11Q17.8,11.1 16.8,10.3L11.3,3.5Q10.8,2.1 11.3,1.1L12.8,-3.3Q13.3,-5.1 13.6,-8Q14,-20.1 14.1,-35.1Q14.1,-50.6 13.8,-61.6Q13.7,-71.1 10.8,-75.8L12.6,-77.2L19.3,-69.9Q56.9,-72.4 74.5,-74.3Q78.1,-74.6 79.5,-76.3L81.6,-78.7Q82.5,-79.5 83.5,-78.9L89.2,-73.8Q90.1,-73 89.1,-71.9L87.2,-69.6Q86.6,-68.7 86.5,-67.3Q86.3,-57.3 86.4,-27.4Q86.4,-15.5 86.4,-9.9Q86.4,-9 86.4,-6.7Q86.5,-1.2 86.4,0.3Q86,5.7 83.4,9.7Q81.9,11.8 80.1,10.1Q76,5.8 64.6,-2L65.8,-4.3L77.7,0.2Q79.4,0.9 79.5,-1.3Q80.1,-15.1 80.3,-32.8Q80.4,-41.7 80.5,-50.7Q80.5,-59.8 80.4,-67.8Q80.5,-69.6 78.7,-69.5Q49.7,-67.4 19.5,-64.9Q19.5,-42 19.7,-8.3Q29.8,-22.2 34.8,-37Q31.4,-42.5 23.4,-53.4L25,-54.6Q26.7,-52.7 29.6,-49.5Q34.4,-44.3 36.4,-42Q37.2,-44.5 38.7,-49.9Q38.9,-50.5 39,-50.9Q40.8,-58.7 38.8,-62.4Z"></path><path transform="translate(300 100)" d="M44.3,-82.2L55.9,-76Q56.9,-75.5 56,-74.2L54.7,-72.5Q54.2,-71.6 53.9,-69.9L53.7,-66Q65.9,-67.2 76,-68.4Q76.1,-68.4 76.3,-68.5Q79.8,-69.1 81.1,-70L84,-72.6Q85,-73.3 85.8,-72.6L92.8,-65.5Q93.7,-64.1 92.4,-63.4L88.4,-61.4Q84.9,-59 78.6,-52.2L76.9,-53.3L80.9,-62.4Q81.5,-63.7 80.2,-63.7L21.7,-58.6Q19.8,-50.9 15.8,-44.5Q14.6,-43.2 13.6,-44.4L9.7,-50.9Q9.2,-52.2 10.4,-53L13.6,-55.2Q16.4,-58 17.3,-64Q17.8,-67.4 16.9,-70.3L18.8,-70.9Q21.4,-67.4 22.1,-63.4Q28.7,-63.8 47.7,-65.5L47.7,-69.8Q47.7,-76.3 43.1,-80.3L44.3,-82.2ZM89.9,-29.7L96.2,-23.8Q96.9,-22.4 95.2,-22.3Q86.6,-22.2 74.2,-21.4L55.2,-19.9Q55.6,-12.8 55.6,-3.6Q55.8,-0.5 55.3,2.1Q54,6.9 51.9,10.1Q50.6,11.7 48.9,10.1Q41.4,4.3 32.3,-1L33.5,-3.4L46.9,0.8Q48.5,1.3 48.6,-0.7Q49.3,-10.5 49,-19.3L28.5,-17.2Q19,-16.2 14.2,-14.8Q12.7,-14.3 11.6,-15L4.9,-19.5Q3.9,-20.9 5.2,-21.3Q11.7,-21.2 22.1,-21.8Q37.8,-23 48.7,-24Q48.7,-24.4 48.7,-25.2Q48.6,-26 48.6,-26.5Q48.3,-32.8 44.3,-36.9L45.7,-38.6L52.1,-34.7L63,-47.1Q53.2,-46.1 43.7,-44.8Q37.6,-43.9 33.6,-42.8Q32.4,-42.1 31.3,-42.7L25.4,-47Q24.7,-48 25.7,-48.3Q32.5,-48.4 39.6,-49Q52,-50 60.1,-51Q64.3,-51.5 66.6,-53.4L68.6,-55.1Q69.3,-55.7 70,-55.1L75.5,-49.1Q76.1,-47.9 74.8,-47.5Q71.5,-46.7 68.2,-44.3Q60.6,-38.7 54.1,-33.5L55.7,-32.6L54.5,-30.4Q54.6,-28.9 54.9,-25.7Q55,-25 55,-24.6L73.6,-26.5Q85.1,-27.6 88.2,-29.7Q89,-30.3 89.9,-29.7Z"></path><path transform="translate(400 100)" d="M18.2,-76.3Q27.5,-72.5 34.8,-67.6Q37,-65.6 34.6,-63.3Q29.3,-60.4 22.6,-54.4L20.7,-55.9Q22.1,-59.6 25.4,-64.4Q26.2,-65.9 25.4,-66.6Q21.8,-70.4 16.9,-74L18.2,-76.3ZM31.2,-40.8Q30.5,-40.2 30.4,-38.7Q29.7,-27.7 28.7,-7.9L44.6,-21.3L46.2,-19.4L33.3,-5.5Q28.8,-0.7 26.7,2.4Q25.8,3.8 24.7,2.6L20.2,-2.8Q19.7,-3.5 20.4,-4.5Q22.8,-6.4 23,-11.1Q24,-23.4 24.5,-38.6Q24.6,-39.8 23.2,-39.6Q15.1,-38.5 10.6,-36.8Q9.8,-36.3 8.9,-36.8L3.8,-40.6Q3,-41.7 4.2,-42Q11.1,-42.2 19.8,-44Q22,-44.3 23,-45.6L25.4,-48.6Q26.2,-49.6 27.3,-48.7L32.9,-44.5Q33.7,-44 33,-43L31.2,-40.8ZM91.1,-49.7L96.8,-44.1Q97.5,-42.9 96.1,-42.7Q88.4,-42.6 80.3,-41.9L70.2,-41Q70.2,-33 70.2,-28.6Q70.2,-23.7 70.3,-19.4Q70.3,-17.3 70.3,-10.7Q70.4,-4.1 70.4,-1.9Q70.4,5.3 69.4,10.3Q68.6,12 67,10.8L60.8,2.9Q59.9,1.7 60.9,0.2L62.8,-3.5Q63.6,-6.1 63.8,-10.5Q64.2,-21.9 64.4,-40.4L54.9,-39.4Q47.7,-38.5 44.9,-37.7Q44.1,-37.3 42.8,-37.9L37.7,-42.4Q37.3,-43.3 38.1,-43.6Q45.8,-43.6 53,-44.2Q55.7,-44.4 60.6,-44.9Q63.2,-45.1 64.4,-45.2Q64.5,-50.8 64.4,-56.7Q64.4,-62.9 64.3,-67.2Q64.3,-77.6 60.3,-81.1L61.8,-82.7L72.8,-75.5Q73.8,-74.7 72.9,-73.6L71.1,-71.2Q70.8,-70.8 70.6,-69.6Q70.6,-69.5 70.6,-69.4Q70.4,-64.3 70.2,-45.8Q74.7,-46.3 77.7,-46.8Q87.1,-47.9 89.7,-49.7Q90.6,-50.1 91.1,-49.7Z"></path><path transform="translate(500 100)" d="M35.3,-71.8L36.1,-73.4Q44.3,-71.3 50.8,-67.6L50.5,-59.2Q49.8,-58.1 48.8,-58.7Q43.1,-66.4 35.3,-71.8ZM66.4,-64.9L74.9,-59.1Q75.6,-58.2 75,-57.5L74,-55.9Q73.9,-55.7 73.8,-55.3Q73.5,-54.6 73.6,-53.9Q73.5,-50.1 73.5,-45.9Q73.5,-43.9 73.5,-41.2Q73.5,-38.9 73.5,-33.2Q73.5,-24.1 72.8,-19.6Q72.3,-17.6 70.8,-18.7L65.8,-24.9Q65.3,-26 65.9,-26.9L67,-29.9Q67.5,-32 67.7,-34.9Q68.2,-45 68,-51.5Q68,-60.6 65.2,-63.2L66.4,-64.9ZM92.9,-76Q93.9,-75.5 93,-74.1L91.4,-71.8Q90.9,-70.4 91,-68.8Q90.7,-52.8 91.3,-17.1Q91.3,-16.6 91.9,-1.1Q92.2,0.9 91.6,3.2Q90.5,7.2 88.3,10.3Q87.3,11.8 85.5,10.1Q76.7,2.4 70.3,-2.3L71.4,-4.9L83,0.4Q84.7,1.3 84.8,-1.1Q85.9,-42 84.8,-70.4Q84.4,-78 80.7,-80.9L82.1,-83L92.9,-76ZM51.7,-40.5L56.5,-31.7Q56.9,-30.6 55.7,-30.3L53,-29.7Q46.1,-22.6 38.2,-16.8Q43.9,-4.8 52.7,-0.4Q54.9,0.7 55.2,-1.5L56.7,-17.2L59.3,-17.2Q59.9,-3.2 62.3,5.7Q63.1,7.9 61,8.4Q53.6,8.7 44.8,2.3Q37.9,-3.8 33.3,-13.3Q21.1,-5.2 5.4,0.7L4.2,-2Q21.2,-10.2 31.2,-18.3Q27.3,-28 24.8,-41.9Q23.5,-41.4 22,-41.1Q15.6,-39.4 11.9,-38.1Q11.1,-37.5 9.9,-37.9L3.9,-41Q3.2,-42.2 4.2,-42.5Q10.8,-43.5 16.5,-44.8L24.1,-46.5Q22.9,-54.5 22.1,-64.1Q21.4,-75.5 16.9,-79.2L18.3,-81L29.9,-74.2Q31,-73.4 29.9,-72.1L27.9,-70.2Q28.4,-57.9 29.8,-47.9Q35.5,-49.4 41.2,-51Q47.9,-53 50.1,-55.2Q51,-55.7 51.5,-55.4L58.1,-51.5Q59.2,-50.3 57.6,-49.7Q54.2,-49 46.8,-47.3Q43.3,-46.4 41.4,-46Q40.4,-45.8 38.6,-45.3Q33.2,-44 30.5,-43.3Q32.6,-31.1 35.9,-22.3Q39.1,-25.1 43.8,-30.2Q49.2,-36 50.3,-40.3L51.7,-40.5Z"></path><path transform="translate(0 200)" d="M31.9,-65.1Q46.5,-65.3 59.9,-66.6L58.9,-49.9L56.6,-49.9Q56.2,-57.6 54.4,-60Q52.8,-62.5 47.9,-62.2Q42.3,-62 35.7,-62L35.3,-62L35.3,-4.7Q40,-4.7 44.6,-4.3L44.6,-0Q32.5,-1.3 19,-0L19,-3.3Q20.1,-3.4 22.2,-3.7Q24.4,-4 25.4,-4.2Q28.3,-4.5 28.3,-7.3L28.3,-62L27.7,-62Q21.1,-62 15.5,-62.2Q10.6,-62.5 8.7,-60Q6.7,-57.7 5.3,-49.9L3,-49.9L4,-66.6Q17.3,-65.3 31.9,-65.1Z"></path><path transform="translate(63 200)" d="M47.2,-4Q50.1,-4 52.8,-3.7L52.8,0.3Q48.3,-0.3 43.8,-0.3Q38.9,-0.3 34.1,0.3L34.1,-2.7L37.4,-3.3Q40.2,-3.8 40.2,-6.5L40.2,-28.1Q40.2,-40.6 32.3,-40.7Q26.8,-40.7 16.6,-34.2L16.6,-4Q19.6,-4 22.6,-3.7L22.6,0.3Q18.1,-0.3 13.6,-0.3Q8.7,-0.3 3.9,0.3L3.9,-2.7Q4,-2.7 4.3,-2.8Q5.4,-3 6.8,-3.2Q9.6,-3.7 9.6,-6.4L9.6,-61Q9.7,-67.1 8.6,-68.4Q7.6,-70.1 3.5,-70L3.5,-72.9L17.4,-73.6Q16.9,-68.5 16.8,-62.7Q16.6,-57 16.6,-47.2L16.6,-38.1Q27.9,-45.6 36.1,-45.7Q47.2,-45.7 47.2,-29.7L47.2,-4Z"></path><path transform="translate(119 200)" d="M29.9,-28.3Q32.5,-28.4 32.3,-31.1Q31.7,-42.1 22.7,-42.9Q11.8,-42.3 11.4,-26.5L29.9,-28.3ZM11.4,-23Q12.5,-5.5 22.9,-4.6Q31.6,-4.8 39.9,-11.1L39.9,-7.2Q31,-0.3 21.9,-0.1Q5.1,-1.3 4,-21.1Q5.3,-45.4 24.3,-47.1Q36.9,-46.7 39.3,-31.7Q39.7,-28.5 39.7,-25.4L11.4,-23Z"></path><path transform="translate(162 200)" d=""></path><path transform="translate(187 200)" d="M26.5,-63.5Q23.5,-63.5 19.3,-63.2L19.3,-29.3Q22.4,-28.4 25.8,-28.5Q43.1,-29.5 44.4,-45.8Q43.5,-62.5 26.5,-63.5ZM25.9,-25.6Q22.6,-25.6 19.3,-25.9L19.3,-4.7L20.3,-4.7Q24.6,-4.7 29.1,-4.3L29.1,-0Q22.8,-0.6 16.7,-0.6Q10.3,-0.6 3.5,-0L3.5,-3.3Q6.5,-3.8 9.5,-4.1Q12.3,-4.4 12.3,-7.2L12.3,-62.8Q7.8,-62.6 2.4,-62.6L2.4,-65.6Q8.7,-65.3 23.5,-66.4Q25,-66.5 27.7,-66.5Q52.7,-66.3 52.9,-47.8Q51,-26.8 25.9,-25.6Z"></path><path transform="translate(243 200)" d="M31.7,-45.7Q34.4,-45.6 36.2,-41.6L34,-34.9Q30.2,-37.7 26.7,-37.6Q23.6,-37.3 16.7,-31.5L16.7,-4Q19.7,-4 22.7,-3.7L22.7,0.3Q14,-0.8 4,0.3L4,-2.7Q6.9,-3.3 9.7,-3.6L9.7,-32.1Q9.8,-38.1 8.6,-39.5Q7.7,-41.2 3.6,-41.1L3.6,-44L16.7,-44.7L16.7,-34.7Q27.9,-45.4 31.7,-45.7Z"></path><path transform="translate(280 200)" d="M24.9,-43.1Q12.4,-41.7 11.5,-24.6Q12.7,-5.8 27.8,-4.1Q40.5,-5.3 41.3,-22.3Q40.1,-41.5 24.9,-43.1ZM28,-47.1Q47.7,-45.9 48.8,-24.9Q47.1,-1.8 25.1,-0.1Q5,-1.1 4,-22.3Q5.5,-45.7 28,-47.1Z"></path><path transform="translate(333 200)" d="M5,-45.6L19.8,-46.6Q19,-41 19,-29.9L19,-2.6Q19.2,10.4 16.6,14.6Q11.2,26.2 2.5,27.8Q-0.2,28.5 -0.9,28Q-1.7,27.5 -1,25.4L0,21.1Q8.9,21.7 10.2,16.1Q11.2,13.1 11.6,6.6Q12,0.7 12,-13.6L12,-33.5Q12.1,-39.7 10.8,-41Q9.7,-42.7 5,-42.6L5,-45.6ZM16,-62.5Q11.2,-62.8 11,-67.3Q11.3,-71.7 16,-72Q20.6,-71.7 20.9,-67.3Q20.7,-62.8 16,-62.5Z"></path><path transform="translate(359 200)" d="M29.9,-28.3Q32.5,-28.4 32.3,-31.1Q31.7,-42.1 22.7,-42.9Q11.8,-42.3 11.4,-26.5L29.9,-28.3ZM11.4,-23Q12.5,-5.5 22.9,-4.6Q31.6,-4.8 39.9,-11.1L39.9,-7.2Q31,-0.3 21.9,-0.1Q5.1,-1.3 4,-21.1Q5.3,-45.4 24.3,-47.1Q36.9,-46.7 39.3,-31.7Q39.7,-28.5 39.7,-25.4L11.4,-23Z"></path><path transform="translate(402 200)" d="M39.8,-7.8Q31.2,-0.2 21.9,-0.1Q4.8,-1.2 4.1,-21Q6.2,-44.5 27.9,-47.1Q36.6,-47 39.6,-42.6L38.6,-37.2Q31.8,-42.7 25.6,-42.6Q12.3,-41.6 11.6,-25Q11.8,-5.1 23.8,-4.8Q30.5,-4.8 39.8,-11.3L39.8,-7.8Z"></path><path transform="translate(444 200)" d="M23.8,-5.5Q27.2,-5.5 33.3,-8.2L33.3,-4.5Q24.2,-0.1 18.3,-0.1Q8.4,-0 8.5,-15.3L8.5,-41.5L3.3,-41.5L3.3,-45.4Q10.5,-45.8 11.4,-54.9L15.5,-55.3L15.5,-46.1L30,-46.1L30,-41.5L15.5,-41.5L15.5,-20Q15.1,-4.7 23.8,-5.5Z"></path><path transform="translate(478 200)" d=""></path><path transform="translate(503 200)" d="M20.3,-65.1Q36.3,-65.1 51.1,-66.6L50.1,-49.9L47.8,-49.9Q47.4,-57.6 45.6,-60Q44,-62.5 39.1,-62.2Q33.5,-62 26.9,-62Q23.8,-62 22,-62Q20,-62 18.3,-62.1L18.3,-35.6L38.3,-35.6Q41.5,-34.6 43.3,-42.2L46.3,-42.2Q45.1,-36.3 45.1,-31.4Q45.1,-27.5 45.4,-24.5L42.4,-24.5L41.6,-28.6Q41.1,-31.3 38.4,-31.3L18.3,-31.3L18.3,-4.7Q24,-4.9 29.8,-4.3L29.8,-0Q17.7,-1.3 4.2,-0L4.2,-3.3Q4.4,-3.3 4.7,-3.4Q6.1,-3.6 8,-3.8Q10.8,-4.3 10.8,-7L10.8,-62.3L3.1,-62.6L3.1,-65.6Q11.1,-65.1 20.3,-65.1Z"></path><path transform="translate(557 200)" d="M24.9,-43.1Q12.4,-41.7 11.5,-24.6Q12.7,-5.8 27.8,-4.1Q40.5,-5.3 41.3,-22.3Q40.1,-41.5 24.9,-43.1ZM28,-47.1Q47.7,-45.9 48.8,-24.9Q47.1,-1.8 25.1,-0.1Q5,-1.1 4,-22.3Q5.5,-45.7 28,-47.1Z"></path><path transform="translate(610 200)" d="M31.7,-45.7Q34.4,-45.6 36.2,-41.6L34,-34.9Q30.2,-37.7 26.7,-37.6Q23.6,-37.3 16.7,-31.5L16.7,-4Q19.7,-4 22.7,-3.7L22.7,0.3Q14,-0.8 4,0.3L4,-2.7Q6.9,-3.3 9.7,-3.6L9.7,-32.1Q9.8,-38.1 8.6,-39.5Q7.7,-41.2 3.6,-41.1L3.6,-44L16.7,-44.7L16.7,-34.7Q27.9,-45.4 31.7,-45.7Z"></path><path transform="translate(647 200)" d=""></path><path transform="translate(672 200)" d="M88.6,-66L88.6,-62.8Q87.8,-62.8 86.5,-62.6Q84.2,-62.3 83.6,-60.1L63,-0L57.3,-0L45.9,-43.7L30.3,-0L24.6,-0L7.2,-61.7Q4.4,-61.5 1.8,-61.7L1.8,-66Q13.2,-65.2 22.7,-66L22.7,-62.8Q21.9,-62.7 20.4,-62.5Q18.8,-62.4 18,-62.3Q14.9,-61.9 15.6,-58.8L29.1,-9.6L43.7,-50.9L41.1,-61.7Q37.8,-61.5 34.6,-61.7L34.6,-66Q46.2,-65.2 55.9,-66L55.9,-62.8Q54.6,-62.6 52.1,-62.4Q51.9,-62.4 51.8,-62.4Q48.6,-62 49.3,-58.9L61.7,-9.6L77.2,-61.8Q72.3,-61.5 67.3,-61.7L67.3,-66Q78.7,-65.2 88.6,-66Z"></path><path transform="translate(763 200)" d="M29.9,-28.3Q32.5,-28.4 32.3,-31.1Q31.7,-42.1 22.7,-42.9Q11.8,-42.3 11.4,-26.5L29.9,-28.3ZM11.4,-23Q12.5,-5.5 22.9,-4.6Q31.6,-4.8 39.9,-11.1L39.9,-7.2Q31,-0.3 21.9,-0.1Q5.1,-1.3 4,-21.1Q5.3,-45.4 24.3,-47.1Q36.9,-46.7 39.3,-31.7Q39.7,-28.5 39.7,-25.4L11.4,-23Z"></path><path transform="translate(806 200)" d="M29.3,-4.1Q41.9,-6.4 43.1,-22.5Q43,-41.9 29,-42.1Q24,-42 16.5,-37.6L16.5,-8.6Q21.5,-4 29.3,-4.1ZM32,-47.1Q49.4,-45.6 50.6,-25.8Q49,-2.3 26.8,-0.1Q22.4,-0.1 18.3,-1.5Q16.4,-2.3 14.5,-2.1L9.5,-1.6L9.5,-62.4Q9.6,-68.5 8.5,-69.8Q7.5,-71.5 3.4,-71.4L3.4,-74.3L16.5,-75L16.5,-40.9Q25,-47 32,-47.1Z"></path></svg>